<svg width="61" height="52" viewBox="0 0 61 52" fill="none" xmlns="http://www.w3.org/2000/svg">
<path fill-rule="evenodd" clip-rule="evenodd" d="M46.8132 40.7611C56.2087 32.5926 61 24.5686 61 16.772C61 7.17074 54.5211 0.0344989 45.9163 2.4657e-05C41.9782 7.50569e-07 39.8055 0.388166 37.2165 1.61312C35.624 2.3666 34.2112 3.3838 32.9788 4.67645L30.5079 7.26816L28.0144 4.69683C26.8091 3.45397 25.4167 2.45941 23.8413 1.70621C21.1742 0.431064 18.8567 0 15.096 0C6.38345 0 0 7.03562 0 16.772C0 24.5686 4.79129 32.5926 14.1868 40.7611C19.3093 45.2145 25.8946 49.6651 30.5 52C35.1054 49.6651 41.6907 45.2145 46.8132 40.7611Z" fill="#D70F0F"/>
</svg>
