<svg width="463" height="663" viewBox="0 0 463 663" fill="none" xmlns="http://www.w3.org/2000/svg">
<path d="M-285.831 211.792C-295.39 216.832 -305.202 221.411 -314.954 226.08C-324.206 230.753 -330.562 237.353 -339.662 241.75C-348.845 246.187 -349.782 254.434 -352.231 262.789C-356.375 276.927 -356.253 284.228 -349.6 297.998C-342.108 313.504 -325.52 322.837 -308.565 327.124C-265.913 337.907 -221.721 362.658 -192.399 394.885C-166.683 423.149 -146.344 450.813 -129.824 485.006C-119.477 506.421 -103.259 530.181 -105.878 554.92C-108.852 583.013 -102.467 604.656 -90.5139 629.395C-79.9215 651.319 -40.0446 657.461 -19.2594 660.446C-5.53718 662.416 4.84993 664.421 17.79 658.343C33.0579 651.171 46.631 641.345 60.1453 631.331C73.3868 621.519 84.3201 610.468 88.4881 594.356C91.4094 583.064 90.0547 570.849 91.5403 559.311C97.248 514.986 126.088 471.725 172.804 462.262C200.446 456.662 228.291 460.553 255.766 464.583C279.738 468.099 308.042 478.82 331.245 467.609C358.489 454.446 375.791 428.097 383.232 399.256C391.766 366.177 387.375 333.88 390.517 300.534C393.432 269.601 406.803 243.585 420.645 215.823C429.561 197.939 439.055 182.028 451.534 166.393C454.215 163.035 463.467 154.859 462.013 150.002C458.763 139.144 443.774 135.54 435.26 130.084C390.73 101.55 336.124 98.6307 287.976 77.3579C265.869 67.5907 245.22 52.2122 224.93 39.2234C206.942 27.7083 187.582 17.2939 168.364 7.93551C154.894 1.37616 143.702 -3.01418 129.575 3.81148C113.295 11.6775 103.891 24.2434 91.7988 37.2373C68.4844 62.2896 47.5757 87.4999 16.4759 103.251C-19.9211 121.684 -56.2112 118.093 -95.438 115.853C-111.614 114.93 -125.39 113.627 -141.244 118.653C-161.896 125.201 -182.211 138.007 -199.366 150.893C-227.635 172.125 -254.354 195.197 -285.831 211.792Z" fill="#0435E2" fill-opacity="0.62"/>
</svg>
