<svg width="438" height="412" viewBox="0 0 438 412" fill="none" xmlns="http://www.w3.org/2000/svg">
<g opacity="0.8">
<g style="mix-blend-mode:multiply">
<path d="M59.9894 142.532C59.417 145.426 56.7578 150.07 62.1721 152.302L62.174 152.31C62.5397 153.911 62.8847 155.422 65.6124 154.78C67.2699 154.39 68.1407 158.443 68.4086 158.955C70.1735 162.33 72.5244 165.88 74.7549 169.853C110.17 215.418 125.043 235.762 155.541 241.234C165.641 243.046 174.843 240.171 183.85 239.444C192.689 238.73 201.536 237.646 210.645 237.265C230.6 236.43 252.435 237.859 273.753 242.954C291.493 247.193 305.101 257.098 323.443 257.868C344.432 258.749 334.481 240.595 328.003 231.804C323.965 226.323 312.861 220.266 315.997 214.412C319.816 207.283 330.6 205.386 341.79 204.834C351.538 204.353 335.435 174.736 332.541 165.93C330.253 158.969 327.636 149.298 318.229 143.82C309.573 138.779 296.067 136.598 286.299 133.952C276.134 131.198 265.049 128.566 255.256 124.528C246.938 121.099 240.47 115.225 232.693 111.144C224.618 106.906 211.605 101.106 202.619 99.294C184.226 95.5848 164.352 99.1217 155.83 108.261C176.793 140.701 181.152 141.022 176.053 145.593C171.594 149.592 158.157 154.976 150.062 154.553C132.398 153.629 83.18 120.566 70.061 127.689C63.3646 131.324 61.2015 136.404 59.9894 142.532Z" fill="#0435E2"/>
</g>
<g style="mix-blend-mode:multiply">
<path d="M84.8505 193.126C84.2781 196.019 81.6189 200.663 87.0331 202.896L87.0351 202.904C87.4008 204.505 87.7458 206.015 90.4735 205.374C92.131 204.984 93.0018 209.037 93.2696 209.549C95.0346 212.924 97.3855 216.474 99.616 220.447C135.032 266.011 149.904 286.356 180.402 291.828C190.502 293.64 199.704 290.765 208.711 290.038C217.55 289.324 226.397 288.24 235.506 287.859C255.461 287.024 277.296 288.453 298.614 293.548C316.354 297.787 329.962 307.692 348.304 308.462C369.293 309.343 359.342 291.189 352.864 282.397C348.826 276.917 337.722 270.86 340.858 265.006C344.678 257.877 355.461 255.979 366.651 255.428C376.399 254.947 360.296 225.329 357.402 216.524C355.114 209.563 352.497 199.892 343.09 194.414C334.434 189.372 320.928 187.192 311.16 184.546C300.995 181.792 289.91 179.16 280.117 175.122C271.799 171.693 265.331 165.819 257.554 161.738C249.479 157.5 236.467 151.7 227.48 149.888C209.087 146.179 189.213 149.716 180.691 158.855C201.654 191.295 206.013 191.616 200.915 196.187C196.455 200.186 183.018 205.57 174.923 205.147C157.259 204.223 108.041 171.16 94.922 178.282C88.2256 181.918 86.0626 186.998 84.8505 193.126Z" fill="#63B3DF"/>
</g>
</g>
</svg>
