<svg width="795" height="888" viewBox="0 0 795 888" fill="none" xmlns="http://www.w3.org/2000/svg">
<path d="M114.639 137.26C92.6228 153.09 37.1488 208.149 36.8249 244.652C19.8793 260.989 -16.3339 307.571 9.8761 326.567C26.7408 338.79 47.0948 330.425 65.5405 336.075C95.5481 345.267 118.41 355.4 142.264 376.444C167.87 399.035 207.933 431.8 222.247 464.083C234.009 490.608 219.462 531.099 212.418 558.532C206.564 581.329 191.539 595.008 179.34 614.638C134.952 686.064 101.146 768.528 68.7572 845.606C49.0007 892.623 68.3319 897.599 103.227 916.496C119.37 925.238 140 949.619 151.132 924.745C172.972 875.948 224.256 835.738 263.87 800.972C279.717 787.066 298.566 785.903 315.447 774.846C331.382 764.408 342.348 760.942 360.911 758.414C423.122 749.945 529.811 799.62 582.705 749.884C620.1 714.721 646.225 679.699 674.99 637.119C682.928 625.369 716.159 596.418 711.75 580.511C707.598 565.535 690.095 553.983 682.134 540.917L682.003 540.702C676.883 532.302 649.315 487.074 660.407 475.482C677.814 457.292 697.646 457.918 721.295 457.05C743.038 456.252 765.776 422.738 774.972 405.919C788.786 380.653 797.331 341.183 794.261 313.432C789.775 272.895 752.281 255.168 727.176 228.469C693.264 192.403 658.614 156.911 625.384 120.214C610.818 104.129 607.547 81.3676 592.617 65.4898C571.705 43.251 554.181 21.2223 523.409 12.1322C494.816 3.68582 454.029 -4.87221 423.901 5.68836C393.564 16.3221 365.187 54.3176 342.181 75.9501C328.031 89.2556 309.564 113.698 290.219 118.23C229.935 132.353 168.46 98.5605 114.639 137.26Z" fill="#DB7B44" fill-opacity="0.9"/>
</svg>
