<svg width="356" height="340" viewBox="0 0 356 340" fill="none" xmlns="http://www.w3.org/2000/svg">
<ellipse cx="178" cy="170" rx="178" ry="170" fill="#DB7B44"/>
<path fill-rule="evenodd" clip-rule="evenodd" d="M171.845 155.067C158.393 153.565 141.047 159.564 129.075 171.558C114.126 186.534 114.616 205.145 128.7 219.254C142.784 233.363 161.362 233.854 176.312 218.879C188.132 207.037 194.119 189.949 192.827 176.549C192.24 170.467 190.155 165.145 186.434 161.418C182.819 157.796 177.701 155.721 171.845 155.067ZM201.858 156.876L215.458 143.252L220.569 146.644C224.985 149.575 230.923 149.01 234.723 145.204C239.116 140.803 239.116 133.667 234.723 129.266C232.972 127.512 230.759 126.419 228.365 126.078L222.788 125.284L221.995 119.697C221.655 117.299 220.564 115.082 218.813 113.328C214.42 108.926 207.296 108.926 202.903 113.328C199.103 117.134 198.54 123.082 201.466 127.507L204.852 132.627L191.315 146.187C193.368 147.508 195.284 149.042 197.036 150.797C198.886 152.65 200.491 154.688 201.858 156.876ZM175.83 140.449L186.127 130.134C182.799 120.783 184.969 110.042 192.296 102.702C202.548 92.4326 219.168 92.4326 229.42 102.702C232.214 105.501 234.298 108.836 235.587 112.462C239.207 113.753 242.535 115.841 245.329 118.64C255.581 128.91 255.581 145.56 245.329 155.83C238.003 163.17 227.281 165.344 217.947 162.01L207.442 172.534C210.24 191.269 202.381 213.982 186.886 229.504C165.955 250.473 137.908 249.731 118.092 229.881C98.277 210.03 97.5369 181.933 118.468 160.965C134.099 145.306 157.035 137.431 175.83 140.449Z" fill="black"/>
</svg>
