<svg width="357" height="341" viewBox="0 0 357 341" fill="none" xmlns="http://www.w3.org/2000/svg">
<ellipse cx="178.949" cy="170.43" rx="178" ry="170" fill="#DB7B44"/>
<path fill-rule="evenodd" clip-rule="evenodd" d="M169.542 268.042V232.208H132.08C123.084 232.208 115.792 224.187 115.792 214.292V133.667C115.792 99.0338 143.867 70.9584 178.5 70.9584C213.133 70.9584 241.208 99.0338 241.208 133.667V214.292C241.208 224.187 233.916 232.208 224.92 232.208H187.458V268.042H169.542ZM218.845 182.379L218.844 182.38L218.844 182.38C218.014 182.952 217.046 183.619 216.617 183.897C213.054 186.2 209.667 187.417 205.375 187.417C199.929 187.417 196.481 186.106 188.194 182.01C185.347 180.603 183.961 179.961 182.492 179.403C180.772 178.75 179.471 178.458 178.5 178.458C176.839 178.458 174.641 179.225 170.471 181.303C170.146 181.466 169.98 181.549 169.815 181.632C169.643 181.718 169.472 181.804 169.123 181.98C161.176 185.983 157.35 187.417 151.625 187.417C145.907 187.417 142.022 185.969 134.081 181.987C133.955 181.924 133.831 181.862 133.708 181.801V214.292H223.292V179.815C222.197 180.255 221.189 180.807 220.166 181.476C219.968 181.605 219.443 181.967 218.845 182.379ZM178.5 88.875C203.238 88.875 223.292 108.929 223.292 133.667V161.281C218.337 162.188 214.263 163.927 210.357 166.483C209.909 166.776 208.986 167.412 208.197 167.956C207.588 168.376 207.06 168.741 206.891 168.85C205.997 169.428 205.795 169.5 205.375 169.5C203.807 169.5 201.691 168.695 196.132 165.948C192.779 164.291 191.029 163.48 188.852 162.653C185.262 161.29 181.924 160.542 178.5 160.542C173.225 160.542 169.017 162.01 162.479 165.268L162.473 165.271C161.76 165.628 161.757 165.629 161.063 165.978C155.7 168.68 153.511 169.5 151.625 169.5C149.725 169.5 147.483 168.664 142.111 165.971C138.486 164.154 135.973 162.971 133.708 162.164V133.667C133.708 108.929 153.762 88.875 178.5 88.875Z" fill="black"/>
</svg>
