<svg width="857" height="1024" viewBox="0 0 857 1024" fill="none" xmlns="http://www.w3.org/2000/svg">
<path d="M234.239 703.04C236.147 705.652 238.325 708.069 240.711 709.585C238.693 725.312 244.236 741.261 237.902 753.528C229.576 769.653 199.052 781.093 183.424 785.544C168.224 789.873 152.318 786.668 137.874 793.425C96.1639 812.937 65.4972 822.554 42.8815 868.787C32.0919 890.844 23.723 904.353 24.5698 929.865C25.3762 954.16 37.1922 982.825 45.8572 1004.73C64.4738 1051.81 77.2348 1116.39 107.202 1156.69C120.11 1174.05 142.875 1183.66 161.45 1192.4C220.413 1220.16 287.21 1225.62 347.086 1252.25C370.581 1262.7 395.006 1282.36 420.79 1285C438.014 1286.77 455.914 1285.69 473.208 1285.49C526.134 1284.88 584.455 1281.38 628.858 1248.06C666.169 1220.06 654.025 1187.78 644.652 1145.11C615.889 1014.18 595.796 872.914 665.939 752.543C691.666 708.394 738.299 689.659 762.076 644.179C785.044 600.246 789.605 542.936 780.845 493.455C773.444 451.646 758.397 416.936 743.306 378.195C722.908 325.83 698.578 276.325 676.011 225.009C672.678 217.432 662.13 177.723 649.001 177.723C641.532 177.723 628.149 197.314 621.075 201.119C600.183 212.359 575.153 213.822 552.177 212.448C520.046 210.528 515.033 198.096 498.844 171.319C462.101 110.543 446.339 43.6844 424.224 -23.7352C410.929 -64.2647 390.183 -104.478 359.904 -133.084C316.179 -174.392 237.881 -162.853 184.569 -156.727C150.655 -152.83 86.372 -139.134 86.372 -92.4476C86.372 -61.7901 84.9726 -28.155 93.01 1.63176C102.317 36.1221 123.383 62.5529 126.658 99.8979C131.188 151.559 121.275 191 80.4207 221.561C55.1396 240.472 -2.40431 270.901 0.0778139 310.961C1.87426 339.954 23.1107 362.403 37.8458 385.091C77.3013 445.842 120.472 503.774 159.39 564.876C187.067 608.33 204.225 661.939 234.239 703.04Z" fill="#0435E2" fill-opacity="0.77"/>
<path d="M356.755 712.549C358.487 714.921 360.466 717.116 362.633 718.493C360.8 732.777 365.834 747.261 360.081 758.402C352.519 773.047 324.795 783.438 310.601 787.48C296.795 791.412 282.348 788.5 269.228 794.637C231.344 812.358 203.49 821.093 182.948 863.082C173.148 883.115 165.547 895.384 166.316 918.554C167.049 940.619 177.781 966.653 185.651 986.551C202.56 1029.3 214.151 1087.95 241.369 1124.56C253.093 1140.33 273.771 1149.05 290.642 1156.99C344.197 1182.2 404.867 1187.16 459.251 1211.34C480.592 1220.83 502.776 1238.69 526.196 1241.09C541.839 1242.7 558.098 1241.72 573.805 1241.54C621.877 1240.98 674.849 1237.8 715.179 1207.54C749.068 1182.12 738.038 1152.8 729.524 1114.05C703.399 995.132 685.149 866.83 748.859 757.507C772.226 717.411 814.583 700.395 836.179 659.09C857.04 619.19 861.183 567.14 853.227 522.201C846.504 484.229 832.837 452.705 819.13 417.521C800.603 369.962 778.505 325.001 758.007 278.394C754.981 271.513 745.399 235.449 733.475 235.449C726.691 235.449 714.536 253.242 708.11 256.698C689.134 266.906 666.4 268.234 645.532 266.987C616.347 265.242 611.794 253.952 597.09 229.633C563.717 174.435 549.401 113.713 529.314 52.4821C517.239 15.6726 498.395 -20.85 470.894 -46.8299C431.179 -84.3464 360.062 -73.8663 311.64 -68.3027C280.837 -64.7635 222.45 -52.3242 222.45 -9.92341C222.45 17.9201 221.179 48.468 228.479 75.5206C236.932 106.845 256.067 130.85 259.041 164.767C263.155 211.687 254.152 247.507 217.044 275.263C194.082 292.438 141.816 320.075 144.071 356.457C145.702 382.789 164.991 403.178 178.375 423.783C214.211 478.958 253.422 531.573 288.771 587.067C313.91 626.531 329.494 675.22 356.755 712.549Z" fill="#0435E2" fill-opacity="0.77"/>
</svg>
