<svg width="1290" height="1024" viewBox="0 0 1290 1024" fill="none" xmlns="http://www.w3.org/2000/svg">
<path d="M128.274 409.113C115.409 415.896 102.203 422.059 89.0796 428.342C76.6272 434.632 68.0738 443.514 55.8262 449.432C43.468 455.403 42.207 466.502 38.9112 477.746C33.3342 496.774 33.4986 506.6 42.4522 525.132C52.5351 546.001 74.8597 558.561 97.6785 564.33C155.08 578.842 214.555 612.152 254.018 655.525C288.626 693.563 315.999 730.794 338.232 776.812C352.158 805.633 373.983 837.61 370.459 870.903C366.456 908.713 375.05 937.84 391.137 971.134C405.392 1000.64 459.06 1008.91 487.033 1012.92C505.501 1015.58 519.48 1018.27 536.895 1010.09C557.443 1000.44 575.71 987.217 593.898 973.74C611.718 960.534 626.433 945.662 632.042 923.978C635.974 908.78 634.15 892.342 636.15 876.814C643.831 817.159 682.646 758.938 745.517 746.202C782.718 738.666 820.193 743.902 857.169 749.326C889.431 754.058 927.523 768.486 958.75 753.399C995.416 735.684 1018.7 700.222 1028.72 661.407C1040.2 616.888 1034.29 573.423 1038.52 528.544C1042.44 486.914 1060.44 451.902 1079.07 414.538C1091.07 390.47 1103.84 369.056 1120.64 348.014C1124.25 343.495 1136.7 332.492 1134.74 325.954C1130.37 311.342 1110.2 306.492 1098.74 299.149C1038.81 260.747 965.317 256.818 900.518 228.189C870.766 215.044 842.976 194.347 815.669 176.866C791.46 161.369 765.406 147.353 739.541 134.758C721.413 125.93 706.351 120.022 687.338 129.208C665.427 139.794 652.772 156.706 636.498 174.193C605.121 207.909 576.981 241.838 535.126 263.036C486.142 287.844 437.302 283.011 384.51 279.997C362.739 278.754 344.2 277 322.863 283.765C295.069 292.576 267.729 309.812 244.64 327.153C206.595 355.728 170.637 386.779 128.274 409.113Z" fill="#0435E2" fill-opacity="0.62"/>
<path d="M180.251 419.327C168.674 425.43 156.792 430.976 144.982 436.629C133.777 442.289 126.081 450.282 115.06 455.607C103.94 460.979 102.805 470.967 99.8395 481.085C94.8212 498.206 94.9691 507.048 103.026 523.724C112.099 542.502 132.187 553.804 152.72 558.995C204.372 572.054 257.889 602.027 293.398 641.055C324.54 675.283 349.171 708.784 369.177 750.192C381.708 776.127 401.347 804.9 398.176 834.859C394.574 868.881 402.307 895.09 416.782 925.049C429.609 951.599 477.901 959.037 503.072 962.652C519.69 965.038 532.269 967.467 547.939 960.105C566.429 951.42 582.866 939.521 599.232 927.394C615.268 915.511 628.508 902.128 633.555 882.617C637.093 868.941 635.453 854.149 637.252 840.177C644.164 786.498 679.09 734.109 735.663 722.649C769.138 715.868 802.859 720.579 836.131 725.46C865.162 729.718 899.438 742.701 927.536 729.125C960.53 713.184 981.483 681.275 990.494 646.348C1000.83 606.289 995.511 567.177 999.316 526.794C1002.85 489.334 1019.04 457.829 1035.8 424.209C1046.6 402.551 1058.1 383.282 1073.21 364.348C1076.45 360.281 1087.66 350.381 1085.9 344.498C1081.96 331.349 1063.81 326.985 1053.5 320.378C999.575 285.822 933.446 282.287 875.138 256.526C848.366 244.697 823.36 226.074 798.788 210.344C777.004 196.399 753.56 183.788 730.286 172.454C713.974 164.511 700.421 159.194 683.312 167.46C663.596 176.986 652.209 192.203 637.565 207.939C609.331 238.278 584.01 268.808 546.348 287.882C502.271 310.205 458.323 305.856 410.819 303.144C391.229 302.026 374.547 300.448 355.347 306.535C330.338 314.464 305.736 329.973 284.96 345.577C250.726 371.289 218.37 399.23 180.251 419.327Z" fill="#0435E2" fill-opacity="0.62"/>
<path d="M241.169 433.792C231.609 438.832 221.797 443.411 212.046 448.08C202.793 452.753 196.438 459.353 187.337 463.75C178.155 468.187 177.218 476.434 174.769 484.789C170.625 498.927 170.747 506.228 177.4 519.998C184.892 535.504 201.48 544.837 218.435 549.124C261.087 559.907 305.279 584.658 334.601 616.885C360.317 645.149 380.656 672.813 397.176 707.006C407.523 728.421 423.74 752.181 421.122 776.92C418.147 805.013 424.533 826.656 436.486 851.395C447.078 873.319 486.955 879.461 507.74 882.446C521.463 884.416 531.85 886.421 544.79 880.343C560.058 873.171 573.631 863.345 587.145 853.331C600.387 843.519 611.32 832.468 615.488 816.356C618.409 805.064 617.054 792.849 618.54 781.311C624.248 736.986 653.088 693.725 699.804 684.262C727.446 678.662 755.291 682.553 782.766 686.583C806.738 690.099 835.042 700.82 858.244 689.609C885.489 676.446 902.791 650.097 910.232 621.256C918.765 588.177 914.375 555.88 917.517 522.534C920.432 491.601 933.803 465.585 947.644 437.823C956.561 419.939 966.055 404.028 978.534 388.393C981.214 385.035 990.466 376.859 989.013 372.002C985.763 361.144 970.774 357.54 962.26 352.084C917.73 323.55 863.124 320.631 814.976 299.358C792.869 289.591 772.22 274.212 751.93 261.223C733.942 249.708 714.582 239.294 695.364 229.936C681.894 223.376 670.702 218.986 656.575 225.811C640.294 233.677 630.891 246.243 618.799 259.237C595.484 284.29 574.575 309.5 543.476 325.251C507.079 343.684 470.789 340.093 431.562 337.853C415.386 336.93 401.61 335.627 385.756 340.653C365.104 347.201 344.789 360.007 327.633 372.893C299.365 394.125 272.646 417.197 241.169 433.792Z" fill="#0435E2" fill-opacity="0.62"/>
</svg>
