<svg width="181" height="106" viewBox="0 0 181 106" fill="none" xmlns="http://www.w3.org/2000/svg">
<ellipse cx="53.5" cy="53" rx="53.5" ry="53" fill="#DB7B44"/>
<path d="M62.919 69.818C62.919 68.978 63.122 68.229 63.528 67.571C63.948 66.899 64.508 66.367 65.208 65.975C65.908 65.583 66.678 65.387 67.518 65.387C68.358 65.387 68.981 65.527 69.387 65.807C69.807 66.073 69.968 66.395 69.87 66.773C69.828 66.969 69.744 67.123 69.618 67.235C69.506 67.333 69.373 67.396 69.219 67.424C69.065 67.452 68.897 67.445 68.715 67.403C67.819 67.221 67.014 67.207 66.3 67.361C65.586 67.515 65.019 67.802 64.599 68.222C64.193 68.642 63.99 69.174 63.99 69.818H62.919ZM62.94 77C62.604 77 62.345 76.916 62.163 76.748C61.981 76.566 61.89 76.3 61.89 75.95V66.563C61.89 66.227 61.981 65.968 62.163 65.786C62.345 65.604 62.604 65.513 62.94 65.513C63.29 65.513 63.549 65.604 63.717 65.786C63.899 65.954 63.99 66.213 63.99 66.563V75.95C63.99 76.286 63.899 76.545 63.717 76.727C63.549 76.909 63.29 77 62.94 77ZM78.4441 77.084C77.2821 77.084 76.2461 76.839 75.3361 76.349C74.4401 75.845 73.7331 75.159 73.2151 74.291C72.7111 73.409 72.4591 72.401 72.4591 71.267C72.4591 70.119 72.6971 69.111 73.1731 68.243C73.6631 67.361 74.3351 66.675 75.1891 66.185C76.0431 65.681 77.0231 65.429 78.1291 65.429C79.2211 65.429 80.1591 65.674 80.9431 66.164C81.7271 66.64 82.3221 67.305 82.7281 68.159C83.1481 68.999 83.3581 69.972 83.3581 71.078C83.3581 71.344 83.2671 71.568 83.0851 71.75C82.9031 71.918 82.6721 72.002 82.3921 72.002H73.9291V70.322H82.3291L81.4681 70.91C81.4541 70.21 81.3141 69.587 81.0481 69.041C80.7821 68.481 80.4041 68.04 79.9141 67.718C79.4241 67.396 78.8291 67.235 78.1291 67.235C77.3311 67.235 76.6451 67.41 76.0711 67.76C75.5111 68.11 75.0841 68.593 74.7901 69.209C74.4961 69.811 74.3491 70.497 74.3491 71.267C74.3491 72.037 74.5241 72.723 74.8741 73.325C75.2241 73.927 75.7071 74.403 76.3231 74.753C76.9391 75.103 77.6461 75.278 78.4441 75.278C78.8781 75.278 79.3191 75.201 79.7671 75.047C80.2291 74.879 80.6001 74.69 80.8801 74.48C81.0901 74.326 81.3141 74.249 81.5521 74.249C81.8041 74.235 82.0211 74.305 82.2031 74.459C82.4411 74.669 82.5671 74.9 82.5811 75.152C82.5951 75.404 82.4831 75.621 82.2451 75.803C81.7691 76.181 81.1741 76.489 80.4601 76.727C79.7601 76.965 79.0881 77.084 78.4441 77.084ZM92.6729 77.084C91.5529 77.084 90.5519 76.832 89.6699 76.328C88.8019 75.81 88.1159 75.117 87.6119 74.249C87.1219 73.367 86.8769 72.373 86.8769 71.267C86.8769 70.133 87.1219 69.125 87.6119 68.243C88.1019 67.361 88.7739 66.675 89.6279 66.185C90.4819 65.681 91.4619 65.429 92.5679 65.429C93.3939 65.429 94.1499 65.59 94.8359 65.912C95.5219 66.22 96.1379 66.689 96.6839 67.319C96.8799 67.543 96.9499 67.774 96.8939 68.012C96.8379 68.25 96.6839 68.46 96.4319 68.642C96.2359 68.782 96.0189 68.831 95.7809 68.789C95.5429 68.733 95.3259 68.607 95.1299 68.411C94.4439 67.683 93.5899 67.319 92.5679 67.319C91.8539 67.319 91.2239 67.487 90.6779 67.823C90.1319 68.145 89.7049 68.6 89.3969 69.188C89.0889 69.776 88.9349 70.469 88.9349 71.267C88.9349 72.023 89.0889 72.695 89.3969 73.283C89.7189 73.871 90.1599 74.34 90.7199 74.69C91.2799 75.026 91.9309 75.194 92.6729 75.194C93.1629 75.194 93.5899 75.138 93.9539 75.026C94.3319 74.9 94.6749 74.711 94.9829 74.459C95.2069 74.277 95.4379 74.179 95.6759 74.165C95.9139 74.137 96.1239 74.2 96.3059 74.354C96.5439 74.55 96.6769 74.774 96.7049 75.026C96.7329 75.264 96.6489 75.481 96.4529 75.677C95.4449 76.615 94.1849 77.084 92.6729 77.084ZM103.143 77C102.835 77 102.576 76.902 102.366 76.706C102.17 76.496 102.072 76.237 102.072 75.929V66.584C102.072 66.262 102.17 66.003 102.366 65.807C102.576 65.611 102.835 65.513 103.143 65.513C103.465 65.513 103.724 65.611 103.92 65.807C104.116 66.003 104.214 66.262 104.214 66.584V75.929C104.214 76.237 104.116 76.496 103.92 76.706C103.724 76.902 103.465 77 103.143 77ZM103.143 63.644C102.765 63.644 102.436 63.511 102.156 63.245C101.89 62.965 101.757 62.636 101.757 62.258C101.757 61.88 101.89 61.558 102.156 61.292C102.436 61.012 102.765 60.872 103.143 60.872C103.521 60.872 103.843 61.012 104.109 61.292C104.389 61.558 104.529 61.88 104.529 62.258C104.529 62.636 104.389 62.965 104.109 63.245C103.843 63.511 103.521 63.644 103.143 63.644ZM111.055 81.914C110.747 81.914 110.488 81.809 110.278 81.599C110.082 81.403 109.984 81.151 109.984 80.843V71.267C109.998 70.161 110.257 69.167 110.761 68.285C111.265 67.403 111.951 66.71 112.819 66.206C113.687 65.688 114.667 65.429 115.759 65.429C116.865 65.429 117.852 65.688 118.72 66.206C119.588 66.71 120.274 67.403 120.778 68.285C121.296 69.167 121.555 70.161 121.555 71.267C121.555 72.373 121.317 73.367 120.841 74.249C120.379 75.117 119.742 75.81 118.93 76.328C118.118 76.832 117.201 77.084 116.179 77.084C115.353 77.084 114.59 76.916 113.89 76.58C113.204 76.23 112.616 75.761 112.126 75.173V80.843C112.126 81.151 112.028 81.403 111.832 81.599C111.636 81.809 111.377 81.914 111.055 81.914ZM115.759 75.194C116.473 75.194 117.11 75.026 117.67 74.69C118.23 74.34 118.671 73.871 118.993 73.283C119.329 72.681 119.497 72.009 119.497 71.267C119.497 70.511 119.329 69.839 118.993 69.251C118.671 68.649 118.23 68.18 117.67 67.844C117.11 67.494 116.473 67.319 115.759 67.319C115.059 67.319 114.422 67.494 113.848 67.844C113.288 68.18 112.847 68.649 112.525 69.251C112.203 69.839 112.042 70.511 112.042 71.267C112.042 72.009 112.203 72.681 112.525 73.283C112.847 73.871 113.288 74.34 113.848 74.69C114.422 75.026 115.059 75.194 115.759 75.194ZM131.932 77.084C130.77 77.084 129.734 76.839 128.824 76.349C127.928 75.845 127.221 75.159 126.703 74.291C126.199 73.409 125.947 72.401 125.947 71.267C125.947 70.119 126.185 69.111 126.661 68.243C127.151 67.361 127.823 66.675 128.677 66.185C129.531 65.681 130.511 65.429 131.617 65.429C132.709 65.429 133.647 65.674 134.431 66.164C135.215 66.64 135.81 67.305 136.216 68.159C136.636 68.999 136.846 69.972 136.846 71.078C136.846 71.344 136.755 71.568 136.573 71.75C136.391 71.918 136.16 72.002 135.88 72.002H127.417V70.322H135.817L134.956 70.91C134.942 70.21 134.802 69.587 134.536 69.041C134.27 68.481 133.892 68.04 133.402 67.718C132.912 67.396 132.317 67.235 131.617 67.235C130.819 67.235 130.133 67.41 129.559 67.76C128.999 68.11 128.572 68.593 128.278 69.209C127.984 69.811 127.837 70.497 127.837 71.267C127.837 72.037 128.012 72.723 128.362 73.325C128.712 73.927 129.195 74.403 129.811 74.753C130.427 75.103 131.134 75.278 131.932 75.278C132.366 75.278 132.807 75.201 133.255 75.047C133.717 74.879 134.088 74.69 134.368 74.48C134.578 74.326 134.802 74.249 135.04 74.249C135.292 74.235 135.509 74.305 135.691 74.459C135.929 74.669 136.055 74.9 136.069 75.152C136.083 75.404 135.971 75.621 135.733 75.803C135.257 76.181 134.662 76.489 133.948 76.727C133.248 76.965 132.576 77.084 131.932 77.084ZM145.741 77.084C144.719 77.084 143.802 76.832 142.99 76.328C142.178 75.81 141.534 75.117 141.058 74.249C140.596 73.367 140.365 72.373 140.365 71.267C140.365 70.161 140.617 69.167 141.121 68.285C141.639 67.403 142.332 66.71 143.2 66.206C144.082 65.688 145.069 65.429 146.161 65.429C147.253 65.429 148.233 65.688 149.101 66.206C149.969 66.71 150.655 67.403 151.159 68.285C151.677 69.167 151.936 70.161 151.936 71.267H151.117C151.117 72.373 150.879 73.367 150.403 74.249C149.941 75.117 149.304 75.81 148.492 76.328C147.68 76.832 146.763 77.084 145.741 77.084ZM146.161 75.194C146.875 75.194 147.512 75.026 148.072 74.69C148.632 74.34 149.073 73.871 149.395 73.283C149.717 72.681 149.878 72.009 149.878 71.267C149.878 70.511 149.717 69.839 149.395 69.251C149.073 68.649 148.632 68.18 148.072 67.844C147.512 67.494 146.875 67.319 146.161 67.319C145.461 67.319 144.824 67.494 144.25 67.844C143.69 68.18 143.242 68.649 142.906 69.251C142.584 69.839 142.423 70.511 142.423 71.267C142.423 72.009 142.584 72.681 142.906 73.283C143.242 73.871 143.69 74.34 144.25 74.69C144.824 75.026 145.461 75.194 146.161 75.194ZM150.865 77.021C150.557 77.021 150.298 76.923 150.088 76.727C149.892 76.517 149.794 76.258 149.794 75.95V72.737L150.193 70.511L151.936 71.267V75.95C151.936 76.258 151.831 76.517 151.621 76.727C151.425 76.923 151.173 77.021 150.865 77.021ZM155.186 79.142C154.878 79.142 154.626 79.037 154.43 78.827C154.22 78.617 154.115 78.365 154.115 78.071C154.115 77.763 154.22 77.504 154.43 77.294C154.626 77.098 154.878 77 155.186 77H165.035C165.315 77 165.56 77.098 165.77 77.294C165.98 77.504 166.085 77.763 166.085 78.071C166.085 78.365 165.98 78.617 165.77 78.827C165.56 79.037 165.315 79.142 165.035 79.142H155.186Z" fill="black"/>
</svg>
