<svg width="654" height="1024" viewBox="0 0 654 1024" fill="none" xmlns="http://www.w3.org/2000/svg">
<path d="M212.755 682.549C214.487 684.921 216.466 687.116 218.633 688.493C216.8 702.777 221.834 717.261 216.081 728.402C208.519 743.047 180.795 753.438 166.601 757.48C152.795 761.412 138.348 758.5 125.228 764.637C87.3437 782.358 59.4898 791.093 38.9485 833.082C29.1484 853.115 21.5471 865.384 22.3163 888.554C23.0487 910.619 33.7809 936.653 41.6512 956.551C58.5603 999.302 70.1508 1057.95 97.3691 1094.56C109.093 1110.33 129.771 1119.05 146.642 1126.99C200.197 1152.2 260.867 1157.16 315.251 1181.34C336.592 1190.83 358.776 1208.69 382.196 1211.09C397.839 1212.7 414.098 1211.72 429.805 1211.54C477.877 1210.98 530.849 1207.8 571.179 1177.54C605.068 1152.12 594.038 1122.8 585.524 1084.05C559.399 965.132 541.149 836.83 604.859 727.507C628.226 687.411 670.583 670.395 692.179 629.09C713.04 589.19 717.183 537.14 709.227 492.201C702.504 454.229 688.837 422.705 675.13 387.521C656.603 339.962 634.505 295.001 614.007 248.394C610.981 241.513 601.399 205.449 589.475 205.449C582.691 205.449 570.536 223.242 564.11 226.698C545.134 236.906 522.4 238.234 501.532 236.987C472.347 235.242 467.794 223.952 453.09 199.633C419.717 144.435 405.401 83.7133 385.314 22.4821C373.239 -14.3274 354.395 -50.85 326.894 -76.8299C287.179 -114.346 216.062 -103.866 167.64 -98.3027C136.837 -94.7635 78.45 -82.3242 78.45 -39.9234C78.45 -12.0799 77.179 18.468 84.4791 45.5206C92.9321 76.8452 112.067 100.85 115.041 134.767C119.155 181.687 110.152 217.507 73.0445 245.263C50.0822 262.438 -2.18378 290.075 0.0706768 326.457C1.70236 352.789 20.991 373.178 34.3746 393.783C70.2113 448.958 109.422 501.573 144.771 557.067C169.91 596.531 185.494 645.22 212.755 682.549Z" fill="#DB7B44"/>
</svg>
